<mxfile host="65bd71144e">
    <diagram id="PyVOMuwsgkNDBzt-UbpW" name="Page-1">
        <mxGraphModel dx="866" dy="658" grid="1" gridSize="10" guides="1" tooltips="1" connect="1" arrows="1" fold="1" page="1" pageScale="1" pageWidth="850" pageHeight="3000" math="0" shadow="0">
            <root>
                <mxCell id="0"/>
                <mxCell id="1" parent="0"/>
                <mxCell id="3" value="Client" style="shape=umlLifeline;perimeter=lifelinePerimeter;whiteSpace=wrap;html=1;container=1;collapsible=0;recursiveResize=0;outlineConnect=0;" vertex="1" parent="1">
                    <mxGeometry x="65" y="40" width="110" height="1360" as="geometry"/>
                </mxCell>
                <mxCell id="68" value="" style="shape=umlDestroy;whiteSpace=wrap;html=1;strokeWidth=3;" vertex="1" parent="3">
                    <mxGeometry x="40" y="1340" width="30" height="30" as="geometry"/>
                </mxCell>
                <mxCell id="5" value="Director" style="shape=umlLifeline;perimeter=lifelinePerimeter;whiteSpace=wrap;html=1;container=1;collapsible=0;recursiveResize=0;outlineConnect=0;" vertex="1" parent="1">
                    <mxGeometry x="250" y="40" width="100" height="1360" as="geometry"/>
                </mxCell>
                <mxCell id="8" value="" style="html=1;points=[];perimeter=orthogonalPerimeter;" vertex="1" parent="5">
                    <mxGeometry x="44.88" y="80" width="10.25" height="40" as="geometry"/>
                </mxCell>
                <mxCell id="18" value="" style="html=1;points=[];perimeter=orthogonalPerimeter;" vertex="1" parent="5">
                    <mxGeometry x="45" y="290" width="10" height="360" as="geometry"/>
                </mxCell>
                <mxCell id="40" value="" style="html=1;points=[];perimeter=orthogonalPerimeter;" vertex="1" parent="5">
                    <mxGeometry x="45.13" y="720" width="10" height="470" as="geometry"/>
                </mxCell>
                <mxCell id="69" value="" style="shape=umlDestroy;whiteSpace=wrap;html=1;strokeWidth=3;" vertex="1" parent="5">
                    <mxGeometry x="34.99999999999999" y="1340" width="30" height="30" as="geometry"/>
                </mxCell>
                <mxCell id="6" value="BoardTaxiBuilder" style="shape=umlLifeline;perimeter=lifelinePerimeter;whiteSpace=wrap;html=1;container=1;collapsible=0;recursiveResize=0;outlineConnect=0;" vertex="1" parent="1">
                    <mxGeometry x="425" y="40" width="100" height="670" as="geometry"/>
                </mxCell>
                <mxCell id="11" value="" style="html=1;points=[];perimeter=orthogonalPerimeter;" vertex="1" parent="6">
                    <mxGeometry x="45" y="150" width="10" height="40" as="geometry"/>
                </mxCell>
                <mxCell id="23" value="" style="html=1;points=[];perimeter=orthogonalPerimeter;" vertex="1" parent="6">
                    <mxGeometry x="45" y="320" width="10" height="80" as="geometry"/>
                </mxCell>
                <mxCell id="26" value="" style="html=1;points=[];perimeter=orthogonalPerimeter;" vertex="1" parent="6">
                    <mxGeometry x="50" y="350" width="10" height="40" as="geometry"/>
                </mxCell>
                <mxCell id="27" value="BuildAdult" style="edgeStyle=orthogonalEdgeStyle;html=1;align=left;spacingLeft=2;endArrow=block;rounded=0;entryX=1;entryY=0;" edge="1" target="26" parent="6">
                    <mxGeometry relative="1" as="geometry">
                        <mxPoint x="55" y="330" as="sourcePoint"/>
                        <Array as="points">
                            <mxPoint x="85" y="330"/>
                        </Array>
                    </mxGeometry>
                </mxCell>
                <mxCell id="29" value="" style="html=1;points=[];perimeter=orthogonalPerimeter;" vertex="1" parent="6">
                    <mxGeometry x="45" y="430" width="10" height="80" as="geometry"/>
                </mxCell>
                <mxCell id="30" value="" style="html=1;points=[];perimeter=orthogonalPerimeter;" vertex="1" parent="6">
                    <mxGeometry x="50" y="460" width="10" height="40" as="geometry"/>
                </mxCell>
                <mxCell id="31" value="BuildChild" style="edgeStyle=orthogonalEdgeStyle;html=1;align=left;spacingLeft=2;endArrow=block;rounded=0;entryX=1;entryY=0;" edge="1" target="30" parent="6">
                    <mxGeometry relative="1" as="geometry">
                        <mxPoint x="55" y="440" as="sourcePoint"/>
                        <Array as="points">
                            <mxPoint x="85" y="440"/>
                            <mxPoint x="85" y="460"/>
                        </Array>
                    </mxGeometry>
                </mxCell>
                <mxCell id="34" value="" style="html=1;points=[];perimeter=orthogonalPerimeter;" vertex="1" parent="6">
                    <mxGeometry x="45" y="540" width="10" height="80" as="geometry"/>
                </mxCell>
                <mxCell id="35" value="" style="html=1;points=[];perimeter=orthogonalPerimeter;" vertex="1" parent="6">
                    <mxGeometry x="50" y="570" width="10" height="40" as="geometry"/>
                </mxCell>
                <mxCell id="36" value="BuildDriver" style="edgeStyle=orthogonalEdgeStyle;html=1;align=left;spacingLeft=2;endArrow=block;rounded=0;entryX=1;entryY=0;" edge="1" target="35" parent="6">
                    <mxGeometry relative="1" as="geometry">
                        <mxPoint x="55" y="550" as="sourcePoint"/>
                        <Array as="points">
                            <mxPoint x="85" y="550"/>
                            <mxPoint x="85" y="570"/>
                        </Array>
                    </mxGeometry>
                </mxCell>
                <mxCell id="7" value="BoardBusBuilder" style="shape=umlLifeline;perimeter=lifelinePerimeter;whiteSpace=wrap;html=1;container=1;collapsible=0;recursiveResize=0;outlineConnect=0;" vertex="1" parent="1">
                    <mxGeometry x="610" y="40" width="100" height="1360" as="geometry"/>
                </mxCell>
                <mxCell id="15" value="" style="html=1;points=[];perimeter=orthogonalPerimeter;" vertex="1" parent="7">
                    <mxGeometry x="44.63" y="220" width="10.75" height="40" as="geometry"/>
                </mxCell>
                <mxCell id="41" value="" style="html=1;points=[];perimeter=orthogonalPerimeter;" vertex="1" parent="7">
                    <mxGeometry x="45.01000000000006" y="750" width="10" height="80" as="geometry"/>
                </mxCell>
                <mxCell id="42" value="" style="html=1;points=[];perimeter=orthogonalPerimeter;" vertex="1" parent="7">
                    <mxGeometry x="54.500000000000064" y="780" width="10" height="40" as="geometry"/>
                </mxCell>
                <mxCell id="43" value="BuildAdult" style="edgeStyle=orthogonalEdgeStyle;html=1;align=left;spacingLeft=2;endArrow=block;rounded=0;entryX=1;entryY=0;" edge="1" target="42" parent="7">
                    <mxGeometry relative="1" as="geometry">
                        <mxPoint x="50" y="760" as="sourcePoint"/>
                        <Array as="points">
                            <mxPoint x="89.50000000000006" y="760"/>
                        </Array>
                    </mxGeometry>
                </mxCell>
                <mxCell id="44" value="" style="html=1;points=[];perimeter=orthogonalPerimeter;" vertex="1" parent="7">
                    <mxGeometry x="45.38000000000007" y="860" width="10" height="80" as="geometry"/>
                </mxCell>
                <mxCell id="45" value="" style="html=1;points=[];perimeter=orthogonalPerimeter;" vertex="1" parent="7">
                    <mxGeometry x="54.500000000000064" y="890" width="10" height="40" as="geometry"/>
                </mxCell>
                <mxCell id="46" value="BuildChild" style="edgeStyle=orthogonalEdgeStyle;html=1;align=left;spacingLeft=2;endArrow=block;rounded=0;entryX=1;entryY=0;" edge="1" target="45" parent="7">
                    <mxGeometry relative="1" as="geometry">
                        <mxPoint x="50.000000000000064" y="870" as="sourcePoint"/>
                        <Array as="points">
                            <mxPoint x="90" y="870"/>
                            <mxPoint x="90" y="890"/>
                        </Array>
                    </mxGeometry>
                </mxCell>
                <mxCell id="47" value="" style="html=1;points=[];perimeter=orthogonalPerimeter;" vertex="1" parent="7">
                    <mxGeometry x="45.38000000000007" y="970" width="10" height="80" as="geometry"/>
                </mxCell>
                <mxCell id="48" value="" style="html=1;points=[];perimeter=orthogonalPerimeter;" vertex="1" parent="7">
                    <mxGeometry x="54.500000000000064" y="1000" width="10" height="40" as="geometry"/>
                </mxCell>
                <mxCell id="49" value="BuildBeneficiary" style="edgeStyle=orthogonalEdgeStyle;html=1;align=left;spacingLeft=2;endArrow=block;rounded=0;entryX=1;entryY=0;" edge="1" target="48" parent="7">
                    <mxGeometry relative="1" as="geometry">
                        <mxPoint x="50.000000000000064" y="980" as="sourcePoint"/>
                        <Array as="points">
                            <mxPoint x="90" y="980"/>
                            <mxPoint x="90" y="1000"/>
                        </Array>
                    </mxGeometry>
                </mxCell>
                <mxCell id="61" value="" style="html=1;points=[];perimeter=orthogonalPerimeter;" vertex="1" parent="7">
                    <mxGeometry x="45.38000000000011" y="1080" width="10" height="80" as="geometry"/>
                </mxCell>
                <mxCell id="62" value="" style="html=1;points=[];perimeter=orthogonalPerimeter;" vertex="1" parent="7">
                    <mxGeometry x="54.500000000000114" y="1110" width="10" height="40" as="geometry"/>
                </mxCell>
                <mxCell id="63" value="BuildDriver" style="edgeStyle=orthogonalEdgeStyle;html=1;align=left;spacingLeft=2;endArrow=block;rounded=0;entryX=1;entryY=0;" edge="1" target="62" parent="7">
                    <mxGeometry relative="1" as="geometry">
                        <mxPoint x="50.00000000000023" y="1090" as="sourcePoint"/>
                        <Array as="points">
                            <mxPoint x="90" y="1090"/>
                            <mxPoint x="90" y="1110"/>
                        </Array>
                    </mxGeometry>
                </mxCell>
                <mxCell id="64" value="CreateBoard" style="html=1;verticalAlign=bottom;endArrow=block;entryX=0;entryY=0;" edge="1" target="61" parent="7">
                    <mxGeometry relative="1" as="geometry">
                        <mxPoint x="-304.8699999999999" y="1080" as="sourcePoint"/>
                    </mxGeometry>
                </mxCell>
                <mxCell id="65" value="return" style="html=1;verticalAlign=bottom;endArrow=open;dashed=1;endSize=8;exitX=0;exitY=0.95;" edge="1" source="61" parent="7">
                    <mxGeometry relative="1" as="geometry">
                        <mxPoint x="-304.8699999999999" y="1156" as="targetPoint"/>
                        <Array as="points">
                            <mxPoint x="-40" y="1156"/>
                        </Array>
                    </mxGeometry>
                </mxCell>
                <mxCell id="71" value="" style="shape=umlDestroy;whiteSpace=wrap;html=1;strokeWidth=3;" vertex="1" parent="7">
                    <mxGeometry x="34.5" y="1340" width="30" height="30" as="geometry"/>
                </mxCell>
                <mxCell id="9" value="new Director" style="html=1;verticalAlign=bottom;endArrow=block;entryX=0;entryY=0;" edge="1" target="8" parent="1" source="3">
                    <mxGeometry relative="1" as="geometry">
                        <mxPoint x="200" y="130.0000000000001" as="sourcePoint"/>
                    </mxGeometry>
                </mxCell>
                <mxCell id="10" value="return" style="html=1;verticalAlign=bottom;endArrow=open;dashed=1;endSize=8;exitX=0;exitY=0.95;" edge="1" source="8" parent="1" target="3">
                    <mxGeometry relative="1" as="geometry">
                        <mxPoint x="200" y="206" as="targetPoint"/>
                    </mxGeometry>
                </mxCell>
                <mxCell id="12" value="new BoardTaxiBuilder" style="html=1;verticalAlign=bottom;endArrow=block;entryX=0;entryY=0;" edge="1" parent="1" target="11" source="3">
                    <mxGeometry relative="1" as="geometry">
                        <mxPoint x="130" y="180" as="sourcePoint"/>
                    </mxGeometry>
                </mxCell>
                <mxCell id="13" value="return" style="html=1;verticalAlign=bottom;endArrow=open;dashed=1;endSize=8;exitX=0;exitY=0.95;" edge="1" parent="1" source="11" target="3">
                    <mxGeometry relative="1" as="geometry">
                        <mxPoint x="130" y="218" as="targetPoint"/>
                    </mxGeometry>
                </mxCell>
                <mxCell id="16" value="new BoardBusBuilder" style="html=1;verticalAlign=bottom;endArrow=block;entryX=0;entryY=0;" edge="1" target="15" parent="1" source="3">
                    <mxGeometry relative="1" as="geometry">
                        <mxPoint x="320" y="260" as="sourcePoint"/>
                    </mxGeometry>
                </mxCell>
                <mxCell id="17" value="return" style="html=1;verticalAlign=bottom;endArrow=open;dashed=1;endSize=8;exitX=0;exitY=0.95;" edge="1" source="15" parent="1" target="3">
                    <mxGeometry relative="1" as="geometry">
                        <mxPoint x="320" y="298" as="targetPoint"/>
                    </mxGeometry>
                </mxCell>
                <mxCell id="19" value="CreateBoard" style="html=1;verticalAlign=bottom;endArrow=block;entryX=0;entryY=0;" edge="1" target="18" parent="1" source="3">
                    <mxGeometry relative="1" as="geometry">
                        <mxPoint x="225" y="340" as="sourcePoint"/>
                    </mxGeometry>
                </mxCell>
                <mxCell id="24" value="CreateBoard" style="html=1;verticalAlign=bottom;endArrow=block;entryX=0;entryY=0;" edge="1" target="23" parent="1" source="5">
                    <mxGeometry relative="1" as="geometry">
                        <mxPoint x="400" y="360" as="sourcePoint"/>
                    </mxGeometry>
                </mxCell>
                <mxCell id="25" value="return" style="html=1;verticalAlign=bottom;endArrow=open;dashed=1;endSize=8;exitX=0;exitY=0.95;" edge="1" source="23" parent="1" target="18">
                    <mxGeometry relative="1" as="geometry">
                        <mxPoint x="400" y="436" as="targetPoint"/>
                    </mxGeometry>
                </mxCell>
                <mxCell id="32" value="CreateBoard" style="html=1;verticalAlign=bottom;endArrow=block;entryX=0;entryY=0;" edge="1" target="29" parent="1" source="18">
                    <mxGeometry relative="1" as="geometry">
                        <mxPoint x="290" y="470.0000000000001" as="sourcePoint"/>
                    </mxGeometry>
                </mxCell>
                <mxCell id="33" value="return" style="html=1;verticalAlign=bottom;endArrow=open;dashed=1;endSize=8;exitX=0;exitY=0.95;" edge="1" source="29" parent="1" target="18">
                    <mxGeometry relative="1" as="geometry">
                        <mxPoint x="290" y="546" as="targetPoint"/>
                    </mxGeometry>
                </mxCell>
                <mxCell id="37" value="CreateBoard" style="html=1;verticalAlign=bottom;endArrow=block;entryX=0;entryY=0;" edge="1" target="34" parent="1" source="18">
                    <mxGeometry relative="1" as="geometry">
                        <mxPoint x="290" y="580" as="sourcePoint"/>
                    </mxGeometry>
                </mxCell>
                <mxCell id="38" value="return" style="html=1;verticalAlign=bottom;endArrow=open;dashed=1;endSize=8;exitX=0;exitY=0.95;" edge="1" source="34" parent="1" target="18">
                    <mxGeometry relative="1" as="geometry">
                        <mxPoint x="290" y="656" as="targetPoint"/>
                    </mxGeometry>
                </mxCell>
                <mxCell id="50" value="CreateBoard" style="html=1;verticalAlign=bottom;endArrow=block;entryX=0;entryY=0;" edge="1" target="40" parent="1" source="3">
                    <mxGeometry relative="1" as="geometry">
                        <mxPoint x="305.1273684210526" y="730.0000000000005" as="sourcePoint"/>
                    </mxGeometry>
                </mxCell>
                <mxCell id="53" value="return" style="html=1;verticalAlign=bottom;endArrow=open;dashed=1;endSize=8;exitX=0;exitY=0.95;" edge="1" source="41" target="40" parent="1">
                    <mxGeometry relative="1" as="geometry">
                        <mxPoint x="585.6800000000001" y="836" as="targetPoint"/>
                    </mxGeometry>
                </mxCell>
                <mxCell id="54" value="CreateBoard" style="html=1;verticalAlign=bottom;endArrow=block;entryX=0;entryY=0;" edge="1" source="40" target="44" parent="1">
                    <mxGeometry relative="1" as="geometry">
                        <mxPoint x="475.68" y="870.0000000000001" as="sourcePoint"/>
                    </mxGeometry>
                </mxCell>
                <mxCell id="55" value="return" style="html=1;verticalAlign=bottom;endArrow=open;dashed=1;endSize=8;exitX=0;exitY=0.95;" edge="1" source="44" target="40" parent="1">
                    <mxGeometry relative="1" as="geometry">
                        <mxPoint x="475.68" y="946" as="targetPoint"/>
                    </mxGeometry>
                </mxCell>
                <mxCell id="56" value="CreateBoard" style="html=1;verticalAlign=bottom;endArrow=block;entryX=0;entryY=0;" edge="1" source="40" target="47" parent="1">
                    <mxGeometry relative="1" as="geometry">
                        <mxPoint x="475.68" y="980" as="sourcePoint"/>
                    </mxGeometry>
                </mxCell>
                <mxCell id="57" value="return" style="html=1;verticalAlign=bottom;endArrow=open;dashed=1;endSize=8;exitX=0;exitY=0.95;" edge="1" source="47" target="40" parent="1">
                    <mxGeometry relative="1" as="geometry">
                        <mxPoint x="475.68" y="1056" as="targetPoint"/>
                        <Array as="points">
                            <mxPoint x="570" y="1086"/>
                        </Array>
                    </mxGeometry>
                </mxCell>
                <mxCell id="52" value="CreateBoard" style="html=1;verticalAlign=bottom;endArrow=block;entryX=0;entryY=0;" edge="1" target="41" parent="1" source="5">
                    <mxGeometry relative="1" as="geometry">
                        <mxPoint x="485.1273684210527" y="760" as="sourcePoint"/>
                    </mxGeometry>
                </mxCell>
                <mxCell id="58" value="return" style="html=1;verticalAlign=bottom;endArrow=open;dashed=1;endSize=8;exitX=0;exitY=0.95;" edge="1" parent="1" target="3">
                    <mxGeometry relative="1" as="geometry">
                        <mxPoint x="140" y="690" as="targetPoint"/>
                        <mxPoint x="295.5" y="690" as="sourcePoint"/>
                    </mxGeometry>
                </mxCell>
                <mxCell id="66" value="return" style="html=1;verticalAlign=bottom;endArrow=open;dashed=1;endSize=8;" edge="1" parent="1" source="40" target="3">
                    <mxGeometry relative="1" as="geometry">
                        <mxPoint x="190.0000000000001" y="1300" as="targetPoint"/>
                        <mxPoint x="540.2500000000003" y="1300" as="sourcePoint"/>
                        <Array as="points">
                            <mxPoint x="200" y="1230"/>
                        </Array>
                    </mxGeometry>
                </mxCell>
                <mxCell id="73" value="" style="shape=umlDestroy;whiteSpace=wrap;html=1;strokeWidth=3;" vertex="1" parent="1">
                    <mxGeometry x="460" y="700" width="30" height="30" as="geometry"/>
                </mxCell>
            </root>
        </mxGraphModel>
    </diagram>
</mxfile>